<?xml version="1.0" standalone="no"?>
<!DOCTYPE svg PUBLIC "-//W3C//DTD SVG 20010904//EN"
 "http://www.w3.org/TR/2001/REC-SVG-20010904/DTD/svg10.dtd">
<svg version="1.0" xmlns="http://www.w3.org/2000/svg"
 width="100.000000pt" height="33.200000pt" viewBox="0 0 336.000000 114.000000"
 preserveAspectRatio="xMidYMid meet">

<g transform="translate(0.000000,114.000000) scale(0.100000,-0.100000)"
fill="#000000" stroke="none">
<path d="M1780 904 c-10 -11 -11 -23 -4 -42 8 -22 16 -27 44 -27 28 0 36 5 44
27 12 34 -6 58 -44 58 -15 0 -33 -7 -40 -16z"/>
<path d="M280 615 c0 -190 4 -295 10 -295 10 0 14 72 10 187 -2 82 13 124 60
167 93 83 242 52 292 -62 40 -90 6 -209 -71 -255 -77 -45 -184 -27 -242 41
-17 20 -27 28 -21 17 26 -51 103 -95 167 -95 43 0 101 23 134 53 95 87 73 275
-38 334 -89 47 -204 22 -256 -54 l-25 -38 0 148 c0 91 -4 147 -10 147 -6 0
-10 -105 -10 -295z"/>
<path d="M1264 603 l122 -278 39 0 39 0 122 278 122 277 -38 0 -37 0 -98 -222
c-53 -123 -100 -226 -104 -230 -4 -5 -52 94 -107 220 l-99 227 -42 3 -41 3
122 -278z"/>
<path d="M2171 740 c-18 -4 -46 -18 -62 -29 l-29 -22 0 26 c0 23 -4 25 -40 25
l-40 0 0 -210 0 -210 40 0 40 0 0 135 c0 151 9 184 60 210 48 25 105 19 142
-14 l33 -29 3 -151 4 -151 34 0 34 0 0 125 c0 133 10 174 48 208 27 25 94 33
132 17 51 -21 60 -52 60 -210 l0 -140 40 0 40 0 0 123 c-1 190 -17 238 -91
282 -64 37 -174 20 -229 -35 -19 -19 -20 -19 -48 9 -27 27 -88 52 -122 50 -8
-1 -30 -5 -49 -9z"/>
<path d="M2958 735 c-86 -28 -139 -104 -139 -199 0 -133 86 -216 224 -216 64
0 144 29 154 57 3 7 -2 22 -12 33 -17 19 -18 19 -45 -2 -34 -25 -106 -34 -152
-19 -42 14 -84 56 -93 94 l-7 27 171 0 171 0 0 43 c0 131 -139 223 -272 182z
m142 -70 c30 -15 60 -61 60 -90 0 -13 -20 -15 -136 -15 l-136 0 6 28 c4 15 22
42 41 60 30 27 42 32 85 32 28 0 64 -7 80 -15z"/>
<path d="M1780 530 l0 -210 40 0 40 0 0 210 0 210 -40 0 -40 0 0 -210z"/>
<path d="M758 690 c11 -25 54 -118 95 -206 l75 -162 -20 -43 c-31 -69 -64 -99
-113 -99 -22 0 -51 7 -64 17 -18 12 -23 13 -19 2 2 -8 22 -20 43 -27 44 -14
91 -4 119 27 21 23 248 511 243 524 -1 5 -43 -80 -91 -188 -49 -107 -93 -192
-97 -188 -4 4 -44 89 -88 188 -45 99 -86 184 -92 190 -6 5 -1 -10 9 -35z"/>
</g>
</svg>
